<svg xmlns="http://www.w3.org/2000/svg" width="20.838" height="22.47" viewBox="0 0 20.838 22.47">
  <g id="locker_2_" data-name="locker (2)" transform="translate(0.175 0.175)">
    <path id="Path_497" data-name="Path 497" d="M19.288,0H1.2A1.252,1.252,0,0,0,0,1.3V20.824a1.252,1.252,0,0,0,1.2,1.3H19.288a1.252,1.252,0,0,0,1.2-1.3V1.3A1.252,1.252,0,0,0,19.288,0Zm.4,1.3v9.332H10.644V.864h8.644A.417.417,0,0,1,19.688,1.3ZM1.2.864H9.844v9.764H.8V1.3A.417.417,0,0,1,1.2.864ZM.8,20.824V11.492H9.844v9.764H1.2A.417.417,0,0,1,.8,20.824Zm18.888,0a.417.417,0,0,1-.4.432H10.644V11.492h9.044Zm0,0" fill="#fff" stroke="#fff" stroke-width="0.35"/>
    <path id="Path_498" data-name="Path 498" d="M41.2,366a1.252,1.252,0,0,0-1.2,1.3,1.3,1.3,0,0,0,.8,1.222v.506a.4.4,0,1,0,.8,0v-.506a1.3,1.3,0,0,0,.8-1.222A1.252,1.252,0,0,0,41.2,366Zm0,1.728a.433.433,0,1,1,.4-.432A.417.417,0,0,1,41.2,367.728Zm0,0" transform="translate(-38.399 -350.188)" fill="#fff" stroke="#fff" stroke-width="0.2"/>
    <path id="Path_499" data-name="Path 499" d="M160.4,286.864h1.841a.433.433,0,0,0,0-.864H160.4a.433.433,0,0,0,0,.864Zm0,0" transform="translate(-153.597 -273.644)" fill="#fff" stroke="#fff" stroke-width="0.4"/>
    <path id="Path_500" data-name="Path 500" d="M162.241,326H160.4a.433.433,0,0,0,0,.864h1.841a.433.433,0,0,0,0-.864Zm0,0" transform="translate(-153.597 -311.916)" fill="#fff" stroke="#fff" stroke-width="0.4"/>
    <path id="Path_502" data-name="Path 502" d="M286.8,368.518v.506a.4.4,0,1,0,.8,0v-.506a1.3,1.3,0,0,0,.8-1.222,1.2,1.2,0,1,0-2.4,0A1.3,1.3,0,0,0,286.8,368.518Zm.4-1.654a.433.433,0,1,1-.4.432A.417.417,0,0,1,287.2,366.864Zm0,0" transform="translate(-274.555 -350.187)" fill="#fff" stroke="#fff" stroke-width="0.2"/>
    <path id="Path_503" data-name="Path 503" d="M406.4,286.864h1.841a.433.433,0,0,0,0-.864H406.4a.433.433,0,0,0,0,.864Zm0,0" transform="translate(-389.753 -273.644)" fill="#fff" stroke="#fff" stroke-width="0.4"/>
    <path id="Path_504" data-name="Path 504" d="M406.4,326.864h1.841a.433.433,0,0,0,0-.864H406.4a.433.433,0,0,0,0,.864Zm0,0" transform="translate(-389.753 -311.916)" fill="#fff" stroke="#fff" stroke-width="0.4"/>
    <path id="Path_506" data-name="Path 506" d="M286.8,122.518v.506a.4.4,0,1,0,.8,0v-.506a1.3,1.3,0,0,0,.8-1.222,1.2,1.2,0,1,0-2.4,0A1.3,1.3,0,0,0,286.8,122.518Zm.4-1.654a.433.433,0,1,1-.4.432A.417.417,0,0,1,287.2,120.864Zm0,0" transform="translate(-274.555 -114.815)" fill="#fff" stroke="#fff" stroke-width="0.2"/>
    <path id="Path_507" data-name="Path 507" d="M406.4,40.864h1.841a.433.433,0,0,0,0-.864H406.4a.433.433,0,0,0,0,.864Zm0,0" transform="translate(-389.753 -38.272)" fill="#fff" stroke="#fff" stroke-width="0.4"/>
    <path id="Path_508" data-name="Path 508" d="M406.4,80.864h1.841a.433.433,0,0,0,0-.864H406.4a.433.433,0,0,0,0,.864Zm0,0" transform="translate(-389.753 -76.544)" fill="#fff" stroke="#fff" stroke-width="0.4"/>
    <path id="Path_510" data-name="Path 510" d="M40.8,122.518v.506a.4.4,0,1,0,.8,0v-.506a1.3,1.3,0,0,0,.8-1.222,1.2,1.2,0,1,0-2.4,0A1.3,1.3,0,0,0,40.8,122.518Zm.4-1.654a.433.433,0,1,1-.4.432A.417.417,0,0,1,41.2,120.864Zm0,0" transform="translate(-38.399 -114.815)" fill="#fff" stroke="#fff" stroke-width="0.2"/>
    <path id="Path_511" data-name="Path 511" d="M160.4,40.864h1.841a.433.433,0,0,0,0-.864H160.4a.433.433,0,0,0,0,.864Zm0,0" transform="translate(-153.597 -38.272)" fill="#fff" stroke="#fff" stroke-width="0.4"/>
    <path id="Path_512" data-name="Path 512" d="M120.4,40a.433.433,0,1,1-.4.432A.417.417,0,0,1,120.4,40Zm0,0" transform="translate(-115.198 -38.272)" fill="#fff" stroke="#fff" stroke-width="0.4"/>
    <path id="Path_513" data-name="Path 513" d="M160.4,80.864h1.841a.433.433,0,0,0,0-.864H160.4a.433.433,0,0,0,0,.864Zm0,0" transform="translate(-153.597 -76.544)" fill="#fff" stroke="#fff" stroke-width="0.4"/>
    <path id="Path_515" data-name="Path 515" d="M366.4,40a.433.433,0,1,1-.4.432A.417.417,0,0,1,366.4,40Zm0,0" transform="translate(-351.354 -38.272)" fill="#fff" stroke="#fff" stroke-width="0.4"/>
    <path id="Path_516" data-name="Path 516" d="M366.4,286a.433.433,0,1,1-.4.432A.417.417,0,0,1,366.4,286Zm0,0" transform="translate(-351.354 -273.644)" fill="#fff" stroke="#fff" stroke-width="0.4"/>
    <path id="Path_517" data-name="Path 517" d="M120.4,286a.433.433,0,1,1-.4.432A.417.417,0,0,1,120.4,286Zm0,0" transform="translate(-115.198 -273.644)" fill="#fff" stroke="#fff" stroke-width="0.4"/>
  </g>
</svg>
